<?xml version="1.0"?>
<svg version="1.1" xmlns="http://www.w3.org/2000/svg" xmlns:xlink="http://www.w3.org/1999/xlink" viewBox="0 0 200 58" preserveAspectRatio="xMinYMin meet">
    <g>
        <path d="M18.3867,12.8672 L18.3867,10.5048 C19.0781,9.89034 19.7791,9.29494 20.4897,8.71874 C21.2003,8.14254 21.9926,7.51844 22.8664,6.84624 C23.7403,6.17404 24.6429,5.53064 25.5744,4.91604 C26.5059,4.30144 27.567,3.66765 28.7578,3.01465 C29.8141,4.55114 30.3423,6.02034 30.3423,7.42234 C30.3423,8.19064 30.179,9.04524 29.8525,9.98634 C29.526,10.9274 29.0795,12.0029 28.5129,13.2129 C27.9463,14.4228 27.2405,15.9401 26.3955,17.7646 C24.1292,22.7773 22.4343,26.9113 21.3108,30.1667 C20.1872,33.4221 19.6255,35.6355 19.6255,36.8071 C19.6255,36.9031 19.6927,37.2776 19.8271,37.9306 C19.9616,38.5836 20.0288,39.0734 20.0288,39.3999 C20.0288,39.9568 19.8703,40.2545 19.5534,40.2929 C19.2365,40.3313 18.79,40.2161 18.2139,39.9472 C16.735,39.2174 15.7459,38.526 15.2466,37.873 C14.7472,37.22 14.4976,36.375 14.4976,35.3379 C14.4976,33.4749 15.1794,30.5844 16.543,26.6665 C17.2344,24.6883 18.041,22.7197 18.9629,20.7607 C19.8847,18.8017 20.9074,16.8187 22.031,14.8117 C23.1545,12.8047 24.2156,10.9562 25.2143,9.26614 C23.0441,10.1687 20.7682,11.3691 18.3867,12.8672 M42.207,35.2802 C44.8574,32.9371 47.1333,30.8965 49.0346,29.1584 C50.936,27.4203 52.4292,26.0519 53.5144,25.0532 C54.5995,24.0545 55.555,23.2094 56.3808,22.518 C57.2067,21.8266 57.7348,21.4809 57.9653,21.4809 C58.407,21.4617 58.8296,21.9179 59.2329,22.8493 C59.6362,23.7808 59.8379,24.525 59.8379,25.082 C59.8379,25.4469 59.2281,26.3064 58.0085,27.6604 C56.7889,29.0144 55.8767,30.0947 55.2717,30.9013 C54.6667,31.708 54.3642,32.553 54.3642,33.4365 C54.3642,33.955 54.5371,34.3728 54.8828,34.6897 C55.2285,35.0066 55.6414,35.165 56.1215,35.165 C56.6785,35.165 57.3459,34.8769 58.1237,34.3007 C58.9016,33.7246 60.1259,32.6971 61.7968,31.2182 L61.7968,33.2636 C60.1259,34.8385 58.6087,36.1973 57.2451,37.3401 C55.8815,38.4828 54.6955,39.3375 53.6872,39.904 C52.6789,40.4706 51.8387,40.7539 51.1665,40.7539 C50.5711,40.7539 50.0717,40.5282 49.6684,40.0769 C49.2651,39.6255 49.0634,39.0638 49.0634,38.3916 C49.0634,37.7386 49.1787,37.076 49.4091,36.4038 C49.6396,35.7316 49.9949,34.9345 50.4751,34.0127 C50.9552,33.0908 51.589,31.9817 52.3764,30.6853 C53.1639,29.3889 53.8841,28.2029 54.5371,27.1274 C52.5781,28.7215 50.84,30.2579 49.3227,31.7368 C47.8055,33.2156 46.5667,34.5072 45.6064,35.6115 C44.6461,36.7159 43.8875,37.5849 43.3305,38.2187 C42.255,39.4095 41.2563,40.0048 40.3344,40.0048 C39.3357,40.0048 38.8364,39.2942 38.8364,37.873 C38.8364,37.2968 39.2109,36.2645 39.9599,34.7761 C40.709,33.2876 41.7749,31.3911 43.1577,29.0864 C43.2729,28.9327 43.3305,28.6927 43.3305,28.3662 C43.3305,27.9821 43.1385,27.79 42.7544,27.79 C42.3318,27.79 41.7221,28.1885 40.925,28.9856 C40.128,29.7826 38.5867,31.4487 36.3012,33.9839 C35.6674,34.6945 34.952,35.6211 34.155,36.7639 C33.358,37.9066 32.7866,38.6701 32.4409,39.0542 C32.0952,39.4383 31.7495,39.6303 31.4038,39.6303 C30.7124,39.6303 30.069,39.0158 29.4736,37.7866 C28.8782,36.5574 28.5805,35.1266 28.5805,33.4941 C28.5805,32.3034 28.7774,31.2758 29.1711,30.4116 C29.5648,29.5473 30.1746,28.4718 31.0005,27.185 C32.2872,25.3221 33.3387,23.9921 34.155,23.195 C34.9712,22.398 35.8307,21.9995 36.7334,21.9995 C37.2903,21.9995 37.7609,22.1099 38.145,22.3308 C38.5291,22.5516 38.7212,22.8541 38.7212,23.2382 C38.7212,23.6416 38.3707,24.3042 37.6696,25.226 C36.9686,26.1479 36.0804,27.0986 35.0048,28.0781 C34.4287,28.6351 33.8813,29.3217 33.3628,30.1379 C32.8442,30.9541 32.5849,31.5447 32.5849,31.9096 C32.5849,32.4282 32.7866,32.6875 33.1899,32.6875 C33.5164,32.6875 34.3423,32.0153 35.6674,30.6709 C36.9926,29.3265 38.4475,27.862 40.0319,26.2776 C41.6164,24.6931 43.0857,23.3775 44.4397,22.3308 C45.7937,21.2841 46.9412,20.7607 47.8823,20.7607 C48.4585,20.7607 48.9338,20.9768 49.3083,21.4089 C49.6828,21.841 49.8701,22.374 49.8701,23.0078 C49.8701,23.4303 49.582,24.1937 49.0058,25.2981 C48.4297,26.4024 47.5894,27.766 46.4851,29.3889 C45.3807,31.0118 43.9547,32.9756 42.207,35.2802 M64.959,26.1767 C67.8782,23.5263 70.7111,21.5577 73.4575,20.271 C76.2039,18.9842 78.3261,18.3408 79.8242,18.3408 C80.2275,18.3408 80.602,18.5088 80.9477,18.8449 C81.2934,19.181 81.5671,19.57 81.7688,20.0117 C81.9704,20.4534 82.0713,20.7799 82.0713,20.9912 C82.0713,21.3369 81.9368,21.5914 81.6679,21.7546 C81.3991,21.9179 80.9285,22.1147 80.2563,22.3452 C80.3908,22.6525 80.5636,23.0462 80.7749,23.5263 C80.9861,24.0065 81.1494,24.3954 81.2646,24.6931 C81.3798,24.9908 81.4375,25.2548 81.4375,25.4853 C81.4375,25.9463 80.9717,26.8057 80.0402,28.0637 C79.1088,29.3217 78.4558,30.2483 78.0813,30.8437 C77.7068,31.4391 77.5195,32.1689 77.5195,33.0332 C77.5195,34.4544 78.1725,35.165 79.4785,35.165 C80.8229,35.165 82.9259,33.907 85.7876,31.3911 L85.7876,33.1484 C80.9285,38.5452 77.4523,41.2436 75.3589,41.2436 C74.6098,41.2436 74.0769,40.9987 73.76,40.509 C73.4431,40.0193 73.2846,39.2942 73.2846,38.3339 C73.2846,36.8167 73.832,34.6176 74.9267,31.7368 C72.1227,34.8481 70.0389,37.0616 68.6753,38.3772 C67.3116,39.6928 66.1881,40.3506 65.3047,40.3506 C64.8821,40.3506 64.354,39.9856 63.7202,39.2558 C63.0864,38.526 62.5246,37.5801 62.0349,36.4182 C61.5451,35.2562 61.3003,34.0511 61.3003,32.8027 C61.3003,31.9 61.3867,31.1462 61.5595,30.5412 C61.7324,29.9362 62.0685,29.3169 62.5678,28.6831 C63.0672,28.0493 63.8642,27.2138 64.959,26.1767 M78.7583,23.0078 C73.7648,25.2933 70.2069,27.233 68.0847,28.8271 C65.9624,30.4212 64.9013,32.0633 64.9013,33.7534 C64.9013,34.368 65.007,34.8721 65.2182,35.2658 C65.4295,35.6596 65.7176,35.8564 66.0825,35.8564 C66.2937,35.8564 66.6683,35.722 67.206,35.4531 C69.2226,34.2623 71.0664,32.7115 72.7373,30.8005 C74.4082,28.8895 76.4152,26.292 78.7583,23.0078 M108.428,33.2636 L98.8642,41.1284 C96.1754,45.7762 93.7267,49.2476 91.518,51.5427 C89.3094,53.8378 87.6673,54.9853 86.5918,54.9853 C86.0156,54.9853 85.7275,54.63 85.7275,53.9194 C85.7275,52.5366 86.4285,50.7697 87.8305,48.6186 C88.3875,47.7736 89.0261,46.9477 89.7463,46.1411 C90.4665,45.3344 91.1483,44.6382 91.7917,44.0525 C92.4351,43.4667 93.285,42.7369 94.3413,41.863 C95.3976,40.9891 96.1178,40.389 96.5019,40.0625 C98.4225,36.1445 99.8053,33.1484 100.65,31.0742 C98.845,32.9948 97.2701,34.5696 95.9257,35.7988 C94.5813,37.028 93.3474,37.9738 92.2238,38.6364 C91.1003,39.299 90.0872,39.6303 89.1845,39.6303 C88.205,39.6303 87.3024,38.8477 86.4765,37.2824 C85.6507,35.7172 85.2378,34.1087 85.2378,32.457 C85.2378,31.6888 85.4154,30.8821 85.7707,30.0371 C86.126,29.192 86.683,28.2894 87.4416,27.3291 C88.2002,26.3688 89.1653,25.3845 90.3369,24.3762 C91.5084,23.3679 92.8816,22.3836 94.4565,21.4233 C97.4334,19.5604 99.7477,18.6289 101.399,18.6289 C102.629,18.6289 103.243,19.0802 103.243,19.9829 C103.243,21.2312 101.908,22.4508 99.2387,23.6416 C97.6063,24.3522 95.9882,25.2933 94.3845,26.4648 C92.7808,27.6364 91.4844,28.8799 90.4953,30.1955 C89.5062,31.5111 89.0117,32.6971 89.0117,33.7534 C89.0117,34.2719 89.1365,34.6849 89.3862,34.9922 C89.6359,35.2994 89.9624,35.4531 90.3657,35.4531 C91.0379,35.4531 91.8061,35.1458 92.6704,34.5312 C93.5346,33.9166 94.8118,32.8315 96.5019,31.2758 C97.2701,30.5652 98.2929,29.4177 99.57,27.8332 C100.847,26.2487 101.904,25.0388 102.739,24.2033 C103.574,23.3679 104.328,22.9502 105.001,22.9502 C105.385,22.9502 105.697,23.0702 105.937,23.3103 C106.177,23.5503 106.297,23.9008 106.297,24.3618 C106.297,25.2452 105.946,26.5272 105.245,28.2077 C104.544,29.8882 103.282,32.6395 101.457,36.4614 L108.428,31.3911 L108.428,33.2636 M112.822,32.3706 L112.822,33.0908 C112.822,34.2239 113.101,35.1074 113.658,35.7412 C114.215,36.375 114.945,36.6919 115.847,36.6919 C116.788,36.6919 117.763,36.471 118.771,36.0293 C119.78,35.5875 120.783,35.0018 121.782,34.2719 C122.78,33.5421 124,32.5626 125.44,31.3335 L125.44,33.0908 C123.27,35.7028 121.234,37.705 119.333,39.0974 C117.432,40.4898 115.502,41.186 113.543,41.186 C111.833,41.186 110.479,40.5234 109.481,39.1982 C108.482,37.873 107.983,36.0581 107.983,33.7534 C107.983,31.7368 108.453,29.9074 109.394,28.2653 C110.335,26.6233 111.872,24.8899 114.003,23.0654 C115.463,21.817 116.913,20.8759 118.354,20.2422 C119.794,19.6084 121.081,19.2915 122.214,19.2915 C123.117,19.2915 123.832,19.4979 124.36,19.9109 C124.888,20.3238 125.152,20.9432 125.152,21.769 C125.152,22.979 124.701,24.1841 123.798,25.3845 C122.896,26.5848 121.518,27.7756 119.664,28.9568 C117.811,30.1379 115.53,31.2758 112.822,32.3706 M113.11,30.498 C114.839,29.8258 116.318,28.9904 117.547,27.9917 C118.776,26.993 119.684,26.0375 120.269,25.1252 C120.855,24.2129 121.148,23.5455 121.148,23.123 C121.148,22.6813 120.946,22.4604 120.543,22.4604 C120.197,22.4604 119.636,22.6813 118.858,23.123 C118.08,23.5647 117.292,24.1409 116.495,24.8515 C115.698,25.5621 114.983,26.3976 114.349,27.3579 C113.715,28.3182 113.302,29.3649 113.11,30.498 M128.741,40.5234 C128.415,40.5234 128.136,40.3986 127.906,40.1489 C127.675,39.8992 127.56,39.5535 127.56,39.1118 C127.56,38.7661 127.767,38.1467 128.179,37.2536 C128.592,36.3606 129.111,35.5635 129.735,34.8625 C130.359,34.1615 131.008,33.811 131.68,33.811 C132.506,33.811 132.919,34.3007 132.919,35.2802 C132.919,35.818 132.698,36.5142 132.256,37.3689 C131.814,38.2235 131.267,38.9629 130.614,39.5871 C129.961,40.2113 129.337,40.5234 128.741,40.5234 M157.86,29.3745 C155.075,33.062 152.958,35.6836 151.508,37.2392 C150.058,38.7949 148.872,39.5727 147.95,39.5727 C147.22,39.5727 146.548,39.2702 145.933,38.6652 C145.319,38.0603 144.843,37.244 144.507,36.2165 C144.171,35.189 144.003,34.0895 144.003,32.9179 C144.003,32.1497 144.075,31.4583 144.219,30.8437 C144.363,30.2291 144.637,29.5521 145.04,28.8127 C145.443,28.0733 145.976,27.2714 146.639,26.4072 C147.302,25.5429 148.113,24.5634 149.073,23.4687 C149.649,22.7965 150.134,22.2299 150.528,21.769 C150.922,21.3081 151.306,20.996 151.68,20.8327 C152.055,20.6695 152.665,20.5879 153.51,20.5879 C154.124,20.5879 154.71,20.6695 155.267,20.8327 C155.824,20.996 156.103,21.164 156.103,21.3369 C156.103,21.6826 155.819,22.3068 155.253,23.2094 C154.686,24.1121 153.774,25.2116 152.516,26.508 C151.258,27.8044 149.803,29.0768 148.151,30.3252 C147.787,31.4583 147.604,32.3226 147.604,32.9179 C147.604,33.7438 147.921,34.1567 148.555,34.1567 C148.785,34.1567 149.169,33.9598 149.707,33.5661 C150.245,33.1724 151.152,32.4138 152.429,31.2902 C153.707,30.1667 154.854,29.1728 155.872,28.3086 C156.621,27.6556 157.49,26.6809 158.479,25.3845 C159.468,24.0881 160.27,23.1134 160.885,22.4604 C162.306,20.9624 163.276,19.9877 163.794,19.5363 C164.313,19.085 164.812,18.8593 165.293,18.8593 C165.753,18.8593 166.066,19.0034 166.229,19.2915 C166.392,19.5796 166.474,20.1653 166.474,21.0488 C166.474,21.4521 166.435,21.7786 166.358,22.0283 C166.282,22.278 166.123,22.5997 165.883,22.9934 C165.643,23.3871 165.158,24.1121 164.428,25.1684 C163.698,26.2247 162.834,27.4731 161.835,28.9135 C161.298,29.6818 160.827,30.522 160.424,31.4343 C160.021,32.3466 159.819,33.0332 159.819,33.4941 C159.819,34.4928 160.213,34.9922 161,34.9922 C161.653,34.9922 162.412,34.7233 163.276,34.1855 C164.14,33.6478 165.465,32.6779 167.252,31.2758 L167.252,33.206 C165.004,35.2802 163.343,36.7879 162.268,37.729 C161.192,38.6701 160.261,39.3807 159.473,39.8608 C158.686,40.3409 157.937,40.581 157.226,40.581 C155.613,40.581 154.806,39.6207 154.806,37.7002 C154.806,36.9703 155.046,35.986 155.526,34.7473 C156.007,33.5085 156.784,31.7176 157.86,29.3745 M166.863,32.1401 L166.863,31.4487 C171.818,26.2247 175.227,22.566 177.09,20.4726 C177.513,18.1103 178.531,16.9292 180.144,16.9292 C180.547,16.9292 180.98,17.0444 181.44,17.2749 L181.613,17.8222 C181.537,18.0527 181.498,18.3792 181.498,18.8017 C181.498,19.1666 181.637,19.8436 181.916,20.8327 C182.194,21.8218 182.41,22.6525 182.564,23.3247 C182.718,23.9969 182.794,24.7555 182.794,25.6006 C182.794,26.8681 182.506,28.0829 181.93,29.2448 C181.354,30.4068 180.519,31.5207 179.424,32.5866 C178.329,33.6526 176.918,34.7425 175.189,35.8564 C175.88,35.9716 176.428,36.0293 176.831,36.0293 C177.619,36.0293 178.468,35.8324 179.381,35.4387 C180.293,35.045 181.224,34.5168 182.175,33.8542 C183.126,33.1916 184.235,32.3322 185.502,31.2758 L185.502,33.206 C183.044,35.6067 180.845,37.4265 178.905,38.6652 C176.966,39.904 175.295,40.5234 173.893,40.5234 C172.087,40.5234 170.416,39.7552 168.88,38.2187 C167.977,37.2968 167.415,36.4134 167.195,35.5683 C166.974,34.7233 166.863,33.5805 166.863,32.1401 M177.609,27.7324 L177.09,23.5263 C175.9,24.8707 173.355,27.4539 169.456,31.2758 C170.608,31.5255 171.396,31.8616 171.818,32.2841 C172.241,32.7067 172.836,33.5229 173.605,34.7329 C174.911,34.1951 175.914,33.4605 176.615,32.529 C177.316,31.5975 177.667,30.3252 177.667,28.7119 C177.667,28.5198 177.662,28.347 177.652,28.1933 C177.643,28.0397 177.628,27.886 177.609,27.7324 Z" style="stroke:none;fill-rule:nonzero;fill:#ffffff;fill-opacity:1;"/>
    </g>
</svg>
